<svg width="1024" height="1024" viewBox="0 0 1024 1024" fill="none" xmlns="http://www.w3.org/2000/svg">
  <defs>
    <linearGradient id="bg" x1="120" y1="80" x2="900" y2="940" gradientUnits="userSpaceOnUse">
      <stop offset="0" stop-color="#0E7490"/>
      <stop offset="1" stop-color="#0F172A"/>
    </linearGradient>
    <linearGradient id="paper" x1="230" y1="260" x2="790" y2="780" gradientUnits="userSpaceOnUse">
      <stop offset="0" stop-color="#FFFFFF"/>
      <stop offset="1" stop-color="#E5E7EB"/>
    </linearGradient>
    <linearGradient id="accent" x1="580" y1="560" x2="900" y2="890" gradientUnits="userSpaceOnUse">
      <stop offset="0" stop-color="#38BDF8"/>
      <stop offset="1" stop-color="#2563EB"/>
    </linearGradient>
    <filter id="shadow" x="130" y="150" width="764" height="744" filterUnits="userSpaceOnUse" color-interpolation-filters="sRGB">
      <feFlood flood-opacity="0" result="BackgroundImageFix"/>
      <feColorMatrix in="SourceAlpha" type="matrix" values="0 0 0 0 0 0 0 0 0 0 0 0 0 0 0 0 0 0 127 0" result="hardAlpha"/>
      <feOffset dy="18"/>
      <feGaussianBlur stdDeviation="26"/>
      <feComposite in2="hardAlpha" operator="out"/>
      <feColorMatrix type="matrix" values="0 0 0 0 0.02 0 0 0 0 0.08 0 0 0 0 0.2 0 0 0 0.35 0"/>
      <feBlend mode="normal" in2="BackgroundImageFix" result="effect1_dropShadow_1_1"/>
      <feBlend mode="normal" in="SourceGraphic" in2="effect1_dropShadow_1_1" result="shape"/>
    </filter>
  </defs>

  <rect x="64" y="64" width="896" height="896" rx="210" fill="url(#bg)"/>
  <rect x="118" y="118" width="788" height="788" rx="170" fill="white" fill-opacity="0.06"/>

  <g filter="url(#shadow)">
    <rect x="196" y="212" width="632" height="600" rx="84" fill="url(#paper)"/>
    <path d="M238 335C238 308.49 259.49 287 286 287H738C764.51 287 786 308.49 786 335V374L512 556L238 374V335Z" fill="#F8FAFC"/>
    <path d="M238 398L454 552C488.96 576.9 535.04 576.9 570 552L786 398V688C786 714.51 764.51 736 738 736H286C259.49 736 238 714.51 238 688V398Z" fill="#FFFFFF"/>
    <path d="M238 401L455 550C489.5 573.7 534.5 573.7 569 550L786 401" stroke="#CBD5E1" stroke-width="20" stroke-linecap="round" stroke-linejoin="round"/>
    <path d="M238 707L404 549" stroke="#D1D5DB" stroke-width="16" stroke-linecap="round"/>
    <path d="M786 707L620 549" stroke="#D1D5DB" stroke-width="16" stroke-linecap="round"/>
  </g>

  <circle cx="742" cy="742" r="134" fill="url(#accent)"/>
  <circle cx="720" cy="720" r="64" stroke="#E0F2FE" stroke-width="24"/>
  <rect x="766" y="766" width="98" height="26" rx="13" transform="rotate(45 766 766)" fill="#E0F2FE"/>
</svg>
